# xmcd
#
# Track frame offsets:
#	150
#	10960
#	22397
#	35630
#	46267
#	58455
#	71160
#	82030
#	94425
#	104712
#	119290
#	134120
#	148337
#	161000
#	172547
#	186237
#	199507
#	212505
#	221692
#
# Disc length: 3101 seconds
#
# Revision: 0
# Processed by: cddbd v1.5.1PL0 Copyright (c) Steve Scherf et al.
# Submitted via: dBpowerAMP V4.0
#
DISCID=300c1b13
DTITLE=Frankie Laine - A Portrait of Frankie Laine
DYEAR=1900
DGENRE=Country
TTITLE0=Woman in Love
TTITLE1=Answer Me
TTITLE2=Cool Water
TTITLE3=Sixteen Tons
TTITLE4=Your Cheatin Heart
TTITLE5=Granada
TTITLE6=Hummingbird
TTITLE7=High Noon
TTITLE8=I Believe
TTITLE9=Jealousy
TTITLE10=Jezebel
TTITLE11=Don't Fence Me In
TTITLE12=Moonlight Gambler
TTITLE13=Mule Train
TTITLE14=That's My Desire
TTITLE15=Wheel of Fortune
TTITLE16=Rain Rain Rain
TTITLE17=Rawhide
TTITLE18=Rose Rose I Love You
EXTD=
EXTT0=
EXTT1=
EXTT2=
EXTT3=
EXTT4=
EXTT5=
EXTT6=
EXTT7=
EXTT8=
EXTT9=
EXTT10=
EXTT11=
EXTT12=
EXTT13=
EXTT14=
EXTT15=
EXTT16=
EXTT17=
EXTT18=
PLAYORDER=
